<svg xmlns="http://www.w3.org/2000/svg" x="0px" y="0px" width="100" height="100" viewBox="0 0 48 48">
<path d="M 23.947266 4.4980469 A 1.50015 1.50015 0 0 0 23.935547 4.5 C 19.235648 4.5388 14.745251 4.9677107 11.71875 6.3554688 C 11.70895 6.3599787 10.092981 7.104892 8.6210938 8.8867188 C 7.1447394 10.673953 5.7207031 13.586225 5.7207031 17.818359 C 5.7207031 19.586784 5.6842055 21.743694 5.7421875 24.050781 A 1.5004834 1.5004834 0 0 0 8.7421875 23.974609 C 8.6861695 21.745696 8.7207031 19.625934 8.7207031 17.818359 C 8.7207031 14.241494 9.8534011 12.106891 10.935547 10.796875 C 12.017693 9.4868591 12.949219 9.0898438 12.949219 9.0898438 A 1.50015 1.50015 0 0 0 12.962891 9.0839844 C 15.094376 8.1049879 19.448879 7.5361522 23.947266 7.4980469 L 24.060547 7.4980469 C 28.557201 7.5363069 32.916116 8.1053219 35.046875 9.0839844 A 1.50015 1.50015 0 0 0 35.058594 9.0898438 C 35.058594 9.0898438 35.992127 9.4870298 37.074219 10.796875 C 38.156311 12.10672 39.289062 14.240952 39.289062 17.818359 A 1.50015 1.50015 0 0 0 39.289062 17.835938 C 39.289062 17.835938 39.327032 23.575054 38.603516 27.294922 A 1.50015 1.50015 0 1 0 41.546875 27.867188 C 42.3777 23.595587 42.289421 17.839398 42.289062 17.816406 C 42.288591 13.58495 40.862882 10.671625 39.386719 8.8847656 C 37.914784 7.1030261 36.300823 6.3599875 36.291016 6.3554688 C 33.264111 4.9675257 28.771182 4.5388003 24.072266 4.5 A 1.50015 1.50015 0 0 0 24.060547 4.4980469 L 23.947266 4.4980469 z M 18.738281 12.101562 C 17.081281 12.101563 15.745563 12.684313 14.726562 13.820312 C 13.738563 14.957312 13.246094 16.492781 13.246094 18.425781 L 13.246094 27.880859 L 16.992188 27.880859 L 16.992188 18.703125 C 16.992188 16.768125 17.807547 15.785156 19.435547 15.785156 C 21.236547 15.785156 22.138672 16.950906 22.138672 19.253906 L 22.138672 24.277344 L 25.861328 24.277344 L 25.861328 19.253906 C 25.861328 16.950906 26.764453 15.785156 28.564453 15.785156 C 30.192453 15.785156 31.007812 16.768125 31.007812 18.703125 L 31.007812 27.880859 L 34.753906 27.880859 L 34.753906 18.425781 C 34.753906 16.493781 34.261437 14.956313 33.273438 13.820312 C 32.254437 12.683312 30.918719 12.101562 29.261719 12.101562 C 27.343719 12.101563 25.893594 12.8385 24.933594 14.3125 L 24 15.876953 L 23.066406 14.3125 C 22.106406 12.8385 20.655281 12.101562 18.738281 12.101562 z M 7.5 27.273438 A 1.50015 1.50015 0 0 0 6.0546875 28.964844 C 6.3978621 31.974901 7.0683767 34.86442 8.4921875 37.296875 C 9.9159983 39.72933 12.175427 41.662891 15.322266 42.496094 A 1.50015 1.50015 0 0 0 15.322266 42.498047 C 18.73232 43.400061 21.690686 43.595052 24.089844 43.462891 A 1.50015 1.50015 0 0 0 24.091797 43.462891 C 27.083573 43.296622 29.202871 42.623124 30.28125 42.193359 C 31.265561 41.801619 31.896071 40.803923 31.849609 39.759766 A 1.50015 1.50015 0 0 0 31.849609 39.757812 L 31.800781 38.708984 L 31.800781 38.707031 C 31.731171 37.193979 30.258025 36.045378 28.765625 36.380859 C 27.698469 36.620482 25.927675 36.917601 24.105469 36.855469 C 22.500882 36.800099 20.987502 36.675061 20.027344 36.261719 C 19.348517 35.969488 18.952962 35.506779 18.669922 34.792969 C 20.020039 35.018223 21.863684 35.268293 23.9375 35.363281 C 26.553836 35.484084 28.962483 35.209664 31.322266 34.927734 C 32.869476 34.743225 34.339849 34.324159 35.666016 33.748047 A 1.50015 1.50015 0 1 0 34.470703 30.998047 C 33.40287 31.461934 32.203586 31.801728 30.966797 31.949219 C 28.62258 32.229289 26.397836 32.472432 24.076172 32.365234 C 20.193419 32.187391 17.138672 31.443359 17.138672 31.443359 A 1.50015 1.50015 0 0 0 15.28125 32.900391 C 15.28125 33.352459 15.309791 33.791446 15.369141 34.21875 C 15.687623 36.624254 17.144883 38.285954 18.839844 39.015625 C 20.535935 39.745782 22.36054 39.79688 24.001953 39.853516 C 25.965366 39.920786 27.590905 39.621344 28.828125 39.367188 L 28.835938 39.509766 C 27.931121 39.845581 26.321805 40.333379 23.925781 40.466797 C 21.822939 40.582635 19.18979 40.417647 16.089844 39.597656 C 13.669651 38.956905 12.179517 37.659545 11.080078 35.78125 C 9.9806391 33.902955 9.3539348 31.403943 9.0371094 28.625 A 1.50015 1.50015 0 0 0 7.5 27.273438 z M 28.853516 39.890625 L 28.853516 39.894531 L 28.851562 39.892578 C 28.851562 39.892578 28.853516 39.890625 28.853516 39.890625 z" fill="currentColor"></path>
</svg>