<?xml version="1.0" standalone="no"?>
<!DOCTYPE svg PUBLIC "-//W3C//DTD SVG 20010904//EN"
 "http://www.w3.org/TR/2001/REC-SVG-20010904/DTD/svg10.dtd">
<svg version="1.0" xmlns="http://www.w3.org/2000/svg"
 width="600.000000pt" height="600.000000pt" viewBox="0 0 600.000000 600.000000"
 preserveAspectRatio="xMidYMid meet">
<metadata>
Created by potrace 1.16, written by Peter Selinger 2001-2019
</metadata>
<g transform="translate(0.000000,600.000000) scale(0.100000,-0.100000)"
fill="#000000" stroke="none">
<path d="M1713 4492 c-29 -10 -69 -31 -90 -45 -22 -15 -317 -308 -656 -651
-682 -690 -661 -665 -662 -791 0 -139 -35 -97 683 -817 716 -718 684 -691 817
-692 143 -2 21 -112 1497 1363 731 729 1328 1331 1328 1337 0 6 -56 66 -124
133 -150 146 -201 175 -311 176 -143 0 -22 110 -1497 -1364 -731 -729 -1328
-1324 -1328 -1321 0 3 65 136 144 295 l144 290 -297 298 -296 297 373 372 372
373 298 -298 297 -297 223 223 222 222 -433 432 c-471 471 -472 472 -591 480
-43 2 -77 -2 -113 -15z"/>
<path d="M4492 3883 l-144 -286 299 -299 298 -298 -506 -507 c-567 -569 -554
-553 -553 -688 1 -95 30 -160 101 -225 67 -62 136 -85 229 -77 122 9 105 -5
787 680 449 452 636 646 655 682 23 43 27 62 27 135 0 69 -4 93 -24 130 -15
30 -184 207 -519 543 -273 273 -499 497 -502 497 -3 0 -70 -129 -148 -287z"/>
</g>
</svg>
